<svg xmlns="http://www.w3.org/2000/svg" xmlns:xlink="http://www.w3.org/1999/xlink" width="1920" zoomAndPan="magnify" viewBox="0 0 1440 809.999993" height="1080" preserveAspectRatio="xMidYMid meet" version="1.0"><defs><g/><clipPath id="fe5c161848"><path d="M 344.636719 0 L 1095.386719 0 L 1095.386719 810 L 344.636719 810 Z M 344.636719 0 " clip-rule="nonzero"/></clipPath></defs><rect x="-144" width="1728" fill="#ffffff" y="-80.999999" height="971.999992" fill-opacity="1"/><rect x="-144" width="1728" fill="#e5e7eb" y="-80.999999" height="971.999992" fill-opacity="1"/><g clip-path="url(#fe5c161848)"><path fill="#535454" d="M 1095.355469 42.34375 L 1061.902344 42.34375 L 1061.902344 0 L 759.457031 0 L 759.457031 37.238281 L 721.03125 37.238281 L 721.03125 282.664062 L 683.789062 282.664062 L 683.789062 321.085938 L 628.121094 321.085938 L 628.121094 356.367188 L 571.265625 356.367188 L 571.265625 396.367188 L 532.0625 396.367188 L 532.0625 433.21875 L 457.167969 433.21875 L 457.167969 396.753906 L 419.539062 396.753906 L 419.539062 359.125 L 381.914062 359.125 L 381.914062 282.664062 L 344.671875 282.664062 L 344.671875 507.699219 L 380.753906 507.699219 L 380.753906 546.125 L 419.953125 546.125 L 419.953125 584.164062 L 457.195312 584.164062 L 457.195312 621.789062 L 494.824219 621.789062 L 494.824219 658.257812 L 532.0625 658.257812 L 532.0625 809.972656 L 608.53125 809.972656 L 608.53125 771.164062 L 570.492188 771.164062 L 570.492188 733.921875 L 608.121094 733.921875 L 608.121094 696.296875 L 645.75 696.296875 L 645.75 659.054688 L 683.789062 659.054688 L 683.789062 696.296875 L 720 696.296875 L 720 810 L 795.539062 810 L 795.539062 771.574219 L 759.070312 771.574219 L 759.070312 621.402344 L 795.539062 621.402344 L 795.539062 583.363281 L 834.351562 583.363281 L 834.351562 526.898438 L 871.207031 526.898438 L 871.207031 395.207031 L 909.636719 395.207031 L 909.636719 431.671875 L 946.105469 431.671875 L 946.105469 357.96875 L 871.621094 357.96875 L 871.621094 282.300781 L 1021.386719 282.300781 L 1021.386719 244.675781 L 909.636719 244.675781 L 909.25 203.390625 L 1095.355469 203.390625 Z M 833.890625 94.53125 L 796.261719 94.53125 L 796.261719 56.902344 L 833.890625 56.902344 Z M 833.890625 94.53125 " fill-opacity="1" fill-rule="nonzero"/></g><g fill="#535454" fill-opacity="1"><g transform="translate(715.523418, 417.374999)"><g><path d="M 4.46875 0.171875 C 3.832031 0.171875 3.332031 -0.00390625 2.96875 -0.359375 C 2.601562 -0.710938 2.421875 -1.1875 2.421875 -1.78125 C 2.421875 -2.351562 2.601562 -2.820312 2.96875 -3.1875 C 3.332031 -3.5625 3.832031 -3.75 4.46875 -3.75 C 5.101562 -3.75 5.601562 -3.570312 5.96875 -3.21875 C 6.34375 -2.863281 6.53125 -2.394531 6.53125 -1.8125 C 6.53125 -1.226562 6.34375 -0.75 5.96875 -0.375 C 5.59375 -0.0078125 5.09375 0.171875 4.46875 0.171875 Z M 4.46875 0.171875 "/></g></g></g></svg>